<svg xmlns="http://www.w3.org/2000/svg" viewBox="0 0 512 512" style="height: 512px; width: 512px;"><g class="" transform="translate(0,0)" style=""><path d="M480.25 156.355c0 161.24-224.25 324.43-224.25 324.43S31.75 317.595 31.75 156.355c0-91.41 70.63-125.13 107.77-125.13 77.65 0 116.48 65.72 116.48 65.72s38.83-65.73 116.48-65.73c37.14.01 107.77 33.72 107.77 125.14z" fill="#fc0303" stroke="#ffffff" stroke-opacity="1" stroke-width="8" fill-opacity="1"></path></g><g class="" transform="translate(256,256)" style=""><g><circle cx="128" cy="128" r="128" fill="#ffffff" fill-opacity="1"></circle><circle stroke="#fe0000" stroke-opacity="1" fill="#ffffff" fill-opacity="1" stroke-width="18" cx="128" cy="128" r="101"></circle><path fill="#fe0000" fill-opacity="1" d="M118.3 168.3h55.6v24H82.08v-24l46.12-40.7q6.2-5.5 9.1-10.9 3-5.3 3-11.1 0-8.85-6-14.27-5.9-5.42-15.8-5.42-7.6 0-16.7 3.3-9.06 3.22-19.38 9.65V71.1q11-3.64 21.78-5.5 10.7-1.95 21-1.95 22.7 0 35.3 9.99 12.6 9.99 12.6 27.86 0 10.3-5.4 19.3-5.3 8.9-22.4 23.9z"></path></g></g></svg>